<svg width="41" height="40" viewBox="0 0 41 40" fill="none" xmlns="http://www.w3.org/2000/svg">
<path d="M28.834 22.3327V27.3327C28.834 33.9993 26.1673 36.666 19.5007 36.666H13.1673C6.50065 36.666 3.83398 33.9993 3.83398 27.3327V20.9993C3.83398 14.3327 6.50065 11.666 13.1673 11.666H18.1673" stroke="#801B4B" stroke-width="1.5" stroke-linecap="round" stroke-linejoin="round"/>
<path d="M28.8327 22.3327H23.4993C19.4993 22.3327 18.166 20.9993 18.166 16.9993V11.666L28.8327 22.3327Z" stroke="#801B4B" stroke-width="1.5" stroke-linecap="round" stroke-linejoin="round"/>
<path d="M19.834 3.33398H26.5007" stroke="#801B4B" stroke-width="1.5" stroke-linecap="round" stroke-linejoin="round"/>
<path d="M12.166 8.33398C12.166 5.56732 14.3993 3.33398 17.166 3.33398H21.5327" stroke="#801B4B" stroke-width="1.5" stroke-linecap="round" stroke-linejoin="round"/>
<path d="M37.1658 13.334V23.6507C37.1658 26.234 35.0658 28.334 32.4824 28.334" stroke="#801B4B" stroke-width="1.5" stroke-linecap="round" stroke-linejoin="round"/>
<path d="M37.166 13.334H32.166C28.416 13.334 27.166 12.084 27.166 8.33398V3.33398L37.166 13.334Z" stroke="#801B4B" stroke-width="1.5" stroke-linecap="round" stroke-linejoin="round"/>
</svg>
