<svg width="96" height="96" viewBox="0 0 96 96" fill="none" xmlns="http://www.w3.org/2000/svg">
<path d="M24 40V32C24 18.76 28 8 48 8C68 8 72 18.76 72 32V40" stroke="#110109" stroke-width="5.5" stroke-linecap="round" stroke-linejoin="round"/>
<path d="M48 74C53.5228 74 58 69.5228 58 64C58 58.4772 53.5228 54 48 54C42.4772 54 38 58.4772 38 64C38 69.5228 42.4772 74 48 74Z" stroke="#110109" stroke-width="5.5" stroke-linecap="round" stroke-linejoin="round"/>
<path d="M68 88H28C12 88 8 84 8 68V60C8 44 12 40 28 40H68C84 40 88 44 88 60V68C88 84 84 88 68 88Z" stroke="#110109" stroke-width="5.5" stroke-linecap="round" stroke-linejoin="round"/>
</svg>
